<svg width="54" height="54" viewBox="0 0 54 54" fill="none" xmlns="http://www.w3.org/2000/svg">
<path d="M0 27C0 12.0883 12.0883 0 27 0V0C41.9117 0 54 12.0883 54 27V27C54 41.9117 41.9117 54 27 54V54C12.0883 54 0 41.9117 0 27V27Z" fill="#6D29EF"/>
<g clip-path="url(#clip0_1075_9359)">
<path d="M25.498 25.1731C24.914 23.5786 23.9483 22.2085 22.7137 21.2229C21.2886 20.0854 19.5937 19.482 17.8601 19.4948C13.2735 19.4948 9.64307 23.5736 9.64307 28.7151C9.64307 33.8565 13.2735 37.9391 17.8601 37.9391C19.5939 37.9531 21.289 37.3496 22.7137 36.211C24.2023 35.0145 25.2905 33.2667 25.7971 31.2585C26.3036 29.2502 26.1981 27.1026 25.498 25.1731ZM17.8601 33.5396C15.5515 33.5396 13.8284 31.5188 13.8284 28.7151C13.8284 25.9505 15.5515 23.8924 17.8601 23.8924C18.5528 23.8788 19.2362 24.0774 19.8405 24.4678C20.4448 24.8582 20.9484 25.4265 21.2997 26.1145C21.6885 26.9114 21.8927 27.8102 21.8927 28.7244C21.8927 29.6386 21.6885 30.5374 21.2997 31.3343C20.9478 32.0205 20.4437 32.5865 19.8393 32.974C19.2348 33.3616 18.5517 33.5568 17.8601 33.5396Z" fill="white"/>
<path d="M35.1453 19.4948C33.4177 19.4835 31.7295 20.0891 30.3127 21.2285C29.2664 22.0703 28.4119 23.1908 27.8219 24.4947C27.2319 25.7986 26.9238 27.2474 26.9238 28.7179C26.9238 30.1883 27.2319 31.6371 27.8219 32.941C28.4119 34.2449 29.2664 35.3654 30.3127 36.2073C31.7299 37.3452 33.4179 37.9502 35.1453 37.9391C39.7626 37.9391 43.3963 33.8602 43.3963 28.7151C43.3963 23.5699 39.7626 19.4948 35.1453 19.4948ZM35.1453 33.5396C34.4582 33.5567 33.7794 33.3646 33.1775 32.9826C32.5755 32.6006 32.0717 32.0423 31.717 31.3641C31.3204 30.5617 31.1119 29.6543 31.1119 28.7309C31.1119 27.8075 31.3204 26.9001 31.717 26.0977C32.0707 25.417 32.5738 24.8556 33.1756 24.4701C33.7775 24.0846 34.4568 23.8886 35.1453 23.9017C37.4523 23.9017 39.177 25.9523 39.177 28.7244C39.177 31.5188 37.4523 33.5396 35.1453 33.5396Z" fill="white"/>
<path d="M26.5109 34.8129C25.8057 36.1393 24.8785 37.2907 23.7832 38.2001C24.5552 39.43 25.4735 40.5288 26.5109 41.4643C27.5476 40.5278 28.4657 39.4292 29.2386 38.2001C28.1433 37.2907 27.2161 36.1393 26.5109 34.8129Z" fill="white"/>
<path d="M41.6847 14.3869V19.7744C40.5674 18.6921 39.2605 17.9005 37.8532 17.4538C36.446 17.0071 34.9716 16.9157 33.5309 17.186C32.0903 17.4563 30.7172 18.0818 29.5056 19.0198C28.294 19.9578 27.2725 21.1862 26.5109 22.621C25.7742 21.2302 24.7931 20.0325 23.6305 19.1049C22.4679 18.1773 21.1497 17.5404 19.7607 17.2353C18.3716 16.9301 16.9425 16.9633 15.5653 17.3329C14.1881 17.7025 12.8933 18.4001 11.7642 19.3811V14.1389C14.1257 12.8285 16.7583 12.3054 19.3643 12.6289C21.9703 12.9524 24.4458 14.1096 26.5109 15.9696C28.6399 14.0518 31.204 12.8824 33.8954 12.6017C36.5868 12.3209 39.2914 12.9408 41.6847 14.3869Z" fill="white"/>
<path d="M26.5109 34.8129C25.8057 36.1393 24.8785 37.2907 23.7832 38.2001C24.5552 39.43 25.4735 40.5288 26.5109 41.4643C27.5476 40.5278 28.4657 39.4292 29.2386 38.2001C28.1433 37.2907 27.2161 36.1393 26.5109 34.8129Z" fill="white"/>
</g>
<defs>
<clipPath id="clip0_1075_9359">
<rect width="33.75" height="28.9286" fill="white" transform="translate(9.64307 12.5357)"/>
</clipPath>
</defs>
</svg>
